<svg xmlns="http://www.w3.org/2000/svg" viewBox="0 0 64 64" fill="none">
  <rect width="64" height="64" rx="16" fill="#0B1020"/>
  <path d="M16 20C16 17.7909 17.7909 16 20 16H30C32.2091 16 34 17.7909 34 20V44C34 46.2091 32.2091 48 30 48H20C17.7909 48 16 46.2091 16 44V20Z" fill="url(#g1)"/>
  <path d="M38 24C38 21.7909 39.7909 20 42 20H48C50.2091 20 52 21.7909 52 24V40C52 42.2091 50.2091 44 48 44H42C39.7909 44 38 42.2091 38 40V24Z" fill="url(#g2)"/>
  <defs>
    <linearGradient id="g1" x1="16" y1="16" x2="34" y2="48" gradientUnits="userSpaceOnUse">
      <stop stop-color="#818CF8"/>
      <stop offset="1" stop-color="#22D3EE"/>
    </linearGradient>
    <linearGradient id="g2" x1="38" y1="20" x2="52" y2="44" gradientUnits="userSpaceOnUse">
      <stop stop-color="#C084FC"/>
      <stop offset="1" stop-color="#60A5FA"/>
    </linearGradient>
  </defs>
</svg>